<svg width="390" height="253" viewBox="0 0 390 253" fill="none" xmlns="http://www.w3.org/2000/svg">
<g clip-path="url(#clip0_413_2)">
<path d="M390 118.783C390.001 128.848 386.198 138.543 379.353 145.929C372.509 153.316 363.125 157.849 353.08 158.623C352.741 158.648 352.397 158.674 352.054 158.689V120.765C352.054 120.386 351.97 120.012 351.807 119.67C351.643 119.327 351.405 119.026 351.111 118.788C351.077 118.753 351.039 118.722 350.998 118.695C350.96 118.665 350.921 118.638 350.88 118.614C350.519 118.382 350.107 118.244 349.68 118.213C349.252 118.181 348.824 118.258 348.434 118.434L348.008 117.502C348.473 117.29 348.979 117.18 349.49 117.179L320.282 92.0416C320.507 91.7854 320.743 91.5344 320.979 91.2834C326.486 85.4845 333.606 81.4686 341.421 79.7545C349.236 78.0403 357.385 78.7068 364.817 81.6677C372.249 84.6286 378.621 89.7479 383.11 96.3642C387.599 102.98 389.999 110.79 390 118.783Z" fill="#F9C8C8"/>
<path d="M352.054 118.255C352.059 118.382 352.015 118.507 351.931 118.603C351.842 118.707 351.717 118.77 351.581 118.781C351.445 118.792 351.311 118.748 351.208 118.66L349.49 117.179L320.282 92.0416L238.36 21.5262C237.892 21.1265 237.297 20.9073 236.682 20.9082C236.067 20.9092 235.472 21.1302 235.006 21.5313L124.685 117.282L123.691 118.142C123.652 118.176 123.609 118.204 123.562 118.224C123.48 118.261 123.39 118.275 123.301 118.265C123.173 118.252 123.054 118.191 122.968 118.096C122.923 118.046 122.889 117.987 122.867 117.923C122.845 117.86 122.836 117.793 122.84 117.725C122.845 117.658 122.862 117.593 122.892 117.532C122.922 117.472 122.963 117.418 123.014 117.374L123.152 117.251L234.334 20.7578C234.987 20.1972 235.82 19.8881 236.681 19.8862C237.542 19.8844 238.375 20.1898 239.031 20.7475L320.979 91.2834L351.874 117.881C351.928 117.928 351.972 117.985 352.003 118.049C352.034 118.114 352.051 118.184 352.054 118.255Z" fill="#3F3D56"/>
<path d="M351.208 118.66L349.49 117.179L320.282 92.0416L238.36 21.5262C237.892 21.1265 237.297 20.9073 236.682 20.9082C236.067 20.9092 235.472 21.1302 235.006 21.5313L124.685 117.282L123.691 118.142C123.652 118.176 123.609 118.204 123.562 118.224L236.5 172L351.208 118.66Z" fill="#F6F6F6"/>
<path d="M289.766 133.383L288.417 129.674L283.771 116.867L273.762 89.2906L262.573 58.4667L242.395 2.86892C241.999 1.78472 241.189 0.901558 240.142 0.412837C239.095 -0.0758837 237.897 -0.13033 236.811 0.261418L120.147 42.5194C119.062 42.9148 118.177 43.7241 117.688 44.7699C117.199 45.8156 117.145 47.0125 117.537 48.0982L146.145 126.918L146.632 128.265L176.661 141.861L185.102 145.682L186.471 146.302L222.207 162.485L223.591 161.983L247.031 153.495L282.387 140.688L287.151 138.961C288.237 138.566 289.122 137.757 289.612 136.712C290.102 135.666 290.158 134.469 289.766 133.383Z" fill="#E6E6E6"/>
<path d="M240.846 67.7287C240.264 66.133 239.073 64.833 237.533 64.1138C235.993 63.3945 234.23 63.3146 232.632 63.8917L186.471 80.6177L164.18 88.6912C163.388 88.9772 162.66 89.4163 162.038 89.9835C161.416 90.5506 160.912 91.2347 160.555 91.9966C160.198 92.7585 159.994 93.5833 159.956 94.4238C159.918 95.2643 160.046 96.104 160.333 96.895C160.62 97.6859 161.061 98.4126 161.629 99.0335C162.197 99.6544 162.883 100.157 163.646 100.513C164.409 100.87 165.234 101.072 166.076 101.109C166.917 101.146 167.758 101.017 168.549 100.73L186.471 94.2392L237.006 75.9354C238.603 75.354 239.904 74.1636 240.624 72.6252C241.344 71.0868 241.424 69.3259 240.846 67.7287Z" fill="#A0A0A0"/>
<path d="M248.974 90.1256C248.392 88.53 247.2 87.23 245.661 86.5107C244.121 85.7915 242.358 85.7116 240.759 86.2886L232.939 89.1216L186.471 105.955L172.308 111.083C170.711 111.663 169.409 112.853 168.69 114.391C167.97 115.929 167.891 117.689 168.47 119.285C169.049 120.881 170.239 122.182 171.778 122.903C173.316 123.623 175.078 123.704 176.677 123.127L186.471 119.577L245.133 98.3272C245.267 98.2811 245.395 98.2248 245.523 98.1684C247.012 97.5156 248.198 96.3214 248.839 94.8279C249.479 93.3345 249.528 91.6534 248.974 90.1256Z" fill="#A0A0A0"/>
<path d="M257.189 112.758C256.608 111.163 255.417 109.863 253.878 109.143C252.339 108.424 250.577 108.344 248.979 108.921L227.047 116.867L210.069 123.019L186.471 131.564L180.523 133.721C179.148 134.221 177.985 135.175 177.227 136.425C176.469 137.675 176.161 139.147 176.353 140.595C176.412 141.027 176.515 141.451 176.661 141.861L185.102 145.682L186.471 145.185H186.481L229.304 129.674L253.348 120.965C254.946 120.385 256.248 119.194 256.968 117.656C257.689 116.117 257.768 114.355 257.189 112.758Z" fill="#A0A0A0"/>
<path d="M209.126 45.7108C208.544 44.1152 207.352 42.8152 205.812 42.096C204.272 41.3767 202.51 41.2968 200.911 41.8738L174.4 51.474C172.803 52.0539 171.501 53.2436 170.782 54.7815C170.062 56.3195 169.983 58.08 170.562 59.6761C171.141 61.2723 172.331 62.5734 173.869 63.2938C175.408 64.0141 177.17 64.0946 178.769 63.5177L187.158 60.4799L192.711 58.4666L205.285 53.9124C206.882 53.3322 208.183 52.1427 208.903 50.6051C209.623 49.0675 209.703 47.3073 209.126 45.7108Z" fill="#A0A0A0"/>
<path d="M314.923 58.4668H190.829C190.097 58.4675 189.377 58.6523 188.736 59.0042C188.094 59.356 187.552 59.8636 187.158 60.4801C186.708 61.178 186.469 61.991 186.471 62.8212V146.302L222.207 162.485L227.242 164.765L235.195 168.366C235.661 168.576 236.166 168.685 236.677 168.685C237.189 168.685 237.694 168.576 238.159 168.366L246.113 164.765L271.003 153.495L294.202 142.988L319.282 131.636V62.8212C319.281 61.6666 318.822 60.5594 318.004 59.743C317.187 58.9265 316.079 58.4675 314.923 58.4668Z" fill="#D45555"/>
<path d="M289.284 116.867H216.469C214.813 116.868 213.222 117.509 212.029 118.656C210.836 119.803 210.133 121.366 210.069 123.019C210.06 123.103 210.057 123.186 210.059 123.27C210.061 124.968 210.737 126.595 211.939 127.796C213.14 128.996 214.769 129.671 216.469 129.674H289.284C290.984 129.674 292.614 128.999 293.816 127.798C295.018 126.597 295.694 124.969 295.694 123.27C295.694 121.572 295.018 119.943 293.816 118.742C292.614 117.541 290.984 116.867 289.284 116.867Z" fill="white"/>
<path d="M293.433 142.214C292.277 141.227 290.805 140.685 289.284 140.688H216.469C214.769 140.688 213.138 141.362 211.936 142.563C210.734 143.764 210.059 145.393 210.059 147.091C210.059 148.79 210.734 150.418 211.936 151.619C213.138 152.82 214.769 153.495 216.469 153.495H271.003L294.202 142.988C293.968 142.709 293.71 142.45 293.433 142.214Z" fill="white"/>
<path d="M227.242 164.765L235.195 168.366C235.661 168.576 236.166 168.685 236.677 168.685C237.188 168.685 237.694 168.576 238.159 168.366L246.113 164.765H227.242Z" fill="white"/>
<path d="M272.998 89.5671C272.547 88.3344 271.727 87.27 270.651 86.5177C269.574 85.7655 268.292 85.3618 266.978 85.3613H238.775C237.543 85.3625 236.338 85.7176 235.304 86.3844C234.269 87.0511 233.448 88.0013 232.939 89.1215C232.559 89.951 232.363 90.8527 232.365 91.7648C232.367 93.4624 233.043 95.0898 234.245 96.2902C235.446 97.4905 237.075 98.1659 238.775 98.1683H266.978C268.009 98.1684 269.025 97.92 269.939 97.4441C270.854 96.9681 271.64 96.2788 272.231 95.4346C272.822 94.5904 273.2 93.6162 273.334 92.5947C273.467 91.5732 273.352 90.5347 272.998 89.5671Z" fill="white"/>
<path d="M268.516 153.495L243.626 164.765L237.734 167.434C237.402 167.583 237.042 167.661 236.677 167.661C236.313 167.661 235.953 167.583 235.621 167.434L229.729 164.765H227.242L235.195 168.366C235.661 168.576 236.166 168.685 236.677 168.685C237.189 168.685 237.694 168.576 238.159 168.366L246.113 164.765L271.003 153.495H268.516ZM268.516 153.495L243.626 164.765L237.734 167.434C237.402 167.583 237.042 167.661 236.677 167.661C236.313 167.661 235.953 167.583 235.621 167.434L229.729 164.765H227.242L235.195 168.366C235.661 168.576 236.166 168.685 236.677 168.685C237.189 168.685 237.694 168.576 238.159 168.366L246.113 164.765L271.003 153.495H268.516ZM268.516 153.495L243.626 164.765L237.734 167.434C237.402 167.583 237.042 167.661 236.677 167.661C236.313 167.661 235.953 167.583 235.621 167.434L229.729 164.765H227.242L235.195 168.366C235.661 168.576 236.166 168.685 236.677 168.685C237.189 168.685 237.694 168.576 238.159 168.366L246.113 164.765L271.003 153.495H268.516ZM352.054 118.255C351.865 118.067 351.657 117.899 351.433 117.753C350.93 117.427 350.352 117.233 349.753 117.189C349.154 117.145 348.554 117.253 348.008 117.502L293.432 142.214L268.516 153.495L243.626 164.765L237.734 167.434C237.402 167.583 237.042 167.661 236.677 167.661C236.313 167.661 235.953 167.583 235.621 167.434L229.729 164.765L223.591 161.983L186.481 145.186L186.471 145.18L176.353 140.596L146.145 126.918L125.347 117.502C125.135 117.404 124.913 117.33 124.685 117.282C124.183 117.156 123.659 117.146 123.152 117.251C122.341 117.417 121.612 117.857 121.088 118.497C120.564 119.137 120.277 119.938 120.275 120.765V249.414C120.276 250.365 120.655 251.276 121.328 251.949C122.001 252.621 122.913 252.999 123.865 253H349.49C350.442 252.999 351.354 252.621 352.027 251.949C352.7 251.276 353.078 250.365 353.079 249.414V120.765C353.081 119.826 352.713 118.925 352.054 118.255ZM352.054 249.414C352.054 250.093 351.783 250.745 351.303 251.225C350.822 251.705 350.17 251.975 349.49 251.976H123.865C123.185 251.975 122.533 251.705 122.052 251.225C121.571 250.745 121.301 250.093 121.301 249.414V120.765C121.301 120.337 121.409 119.916 121.614 119.54C121.819 119.164 122.115 118.846 122.475 118.614C122.729 118.452 123.008 118.334 123.301 118.265C123.387 118.247 123.474 118.233 123.562 118.224C123.663 118.21 123.764 118.203 123.865 118.204C124.229 118.204 124.59 118.283 124.921 118.434L146.632 128.265L176.661 141.861L185.102 145.683L186.471 146.302L222.207 162.485L227.242 164.765L235.195 168.366C235.661 168.576 236.166 168.685 236.677 168.685C237.189 168.685 237.694 168.576 238.159 168.366L246.113 164.765L271.003 153.495L294.202 142.988L348.434 118.434C348.824 118.258 349.252 118.182 349.679 118.213C350.107 118.244 350.519 118.382 350.88 118.614C350.921 118.638 350.96 118.665 350.998 118.696C351.039 118.722 351.076 118.753 351.11 118.788C351.405 119.026 351.643 119.328 351.806 119.67C351.97 120.012 352.054 120.386 352.054 120.765L352.054 249.414ZM268.516 153.495L243.626 164.765L237.734 167.434C237.402 167.583 237.042 167.661 236.677 167.661C236.313 167.661 235.953 167.583 235.621 167.434L229.729 164.765H227.242L235.195 168.366C235.661 168.576 236.166 168.685 236.677 168.685C237.189 168.685 237.694 168.576 238.159 168.366L246.113 164.765L271.003 153.495H268.516ZM268.516 153.495L243.626 164.765L237.734 167.434C237.402 167.583 237.042 167.661 236.677 167.661C236.313 167.661 235.953 167.583 235.621 167.434L229.729 164.765H227.242L235.195 168.366C235.661 168.576 236.166 168.685 236.677 168.685C237.189 168.685 237.694 168.576 238.159 168.366L246.113 164.765L271.003 153.495H268.516ZM185.102 145.683L186.471 146.302V145.186L185.102 145.683ZM268.516 153.495L243.626 164.765L237.734 167.434C237.402 167.583 237.042 167.661 236.677 167.661C236.313 167.661 235.953 167.583 235.621 167.434L229.729 164.765H227.242L235.195 168.366C235.661 168.576 236.166 168.685 236.677 168.685C237.189 168.685 237.694 168.576 238.159 168.366L246.113 164.765L271.003 153.495H268.516Z" fill="#3F3D56"/>
<path d="M235.195 168.366L227.242 164.765L222.207 162.485L186.471 146.302L185.102 145.683L176.661 141.861L146.632 128.265L124.921 118.434C124.59 118.283 124.229 118.204 123.865 118.204C123.764 118.203 123.663 118.21 123.562 118.224C123.474 118.233 123.387 118.247 123.301 118.265C123.008 118.334 122.729 118.452 122.475 118.614C122.115 118.846 121.819 119.164 121.614 119.54C121.409 119.916 121.301 120.337 121.301 120.765V249.414C121.301 250.093 121.571 250.745 122.052 251.225C122.533 251.705 123.185 251.975 123.865 251.976H349.49C350.17 251.975 350.822 251.705 351.303 251.225C351.783 250.745 352.054 250.093 352.054 249.414L352.054 120.765C352.054 120.386 351.97 120.012 351.806 119.67C351.643 119.328 351.405 119.026 351.11 118.788C351.076 118.753 351.039 118.722 350.998 118.696C350.96 118.665 350.921 118.638 350.88 118.614C350.519 118.382 350.107 118.244 349.679 118.213C349.252 118.182 348.824 118.258 348.434 118.434L294.202 142.988L271.003 153.495L246.113 164.765L238.159 168.366C237.694 168.576 237.189 168.685 236.677 168.685C236.166 168.685 235.661 168.576 235.195 168.366Z" fill="#FEFEFE"/>
<path d="M10.1417 146.029C9.99648 145.287 10.0157 144.523 10.1981 143.79C10.3804 143.057 10.7215 142.373 11.1972 141.785C11.6729 141.198 12.2717 140.722 12.9514 140.391C13.6312 140.06 14.3753 139.882 15.1314 139.869L38.1872 112.45L43.9433 119.803L20.4461 145.321C20.3831 146.591 19.856 147.794 18.9644 148.702C18.0729 149.61 16.8789 150.16 15.6088 150.247C14.3386 150.334 13.0806 149.953 12.073 149.176C11.0654 148.398 10.3782 147.279 10.1417 146.029Z" fill="#FFB8B8"/>
<path d="M119.626 112.281C119.464 112.514 119.322 112.759 119.199 113.015L94.0242 116.61L90.2015 111.761L82.1229 116.569L89.7167 128.397L120.42 119.355C121.23 120.088 122.244 120.557 123.328 120.699C124.411 120.842 125.513 120.652 126.485 120.154C127.458 119.656 128.256 118.875 128.773 117.913C129.29 116.951 129.502 115.855 129.38 114.77C129.259 113.685 128.809 112.662 128.091 111.839C127.374 111.015 126.422 110.429 125.364 110.159C124.305 109.889 123.189 109.947 122.164 110.326C121.139 110.705 120.253 111.387 119.626 112.281Z" fill="#FFB8B8"/>
<path d="M76.6233 203.892L81.0784 208.323L100.308 193.266L93.7329 186.726L76.6233 203.892Z" fill="#FFB8B8"/>
<path d="M85.551 221.002L71.55 207.075L76.9363 201.671L85.5278 210.217C86.2382 210.924 86.8023 211.763 87.1879 212.688C87.5736 213.612 87.7731 214.604 87.7753 215.605C87.7774 216.607 87.5821 217.599 87.2005 218.525C86.8188 219.451 86.2584 220.293 85.551 221.002Z" fill="#2F2E41"/>
<path d="M52.9429 246.397H59.2297L62.2202 222.172H52.9419L52.9429 246.397Z" fill="#FFB8B8"/>
<path d="M71.3539 252.228L51.5959 252.228L51.5956 244.602L63.7198 244.602C64.7223 244.602 65.7149 244.799 66.6411 245.182C67.5673 245.565 68.4089 246.127 69.1178 246.835C69.8267 247.543 70.389 248.384 70.7727 249.309C71.1563 250.234 71.3538 251.226 71.3539 252.228Z" fill="#2F2E41"/>
<path d="M51.5762 227.687L44.4155 174.928C43.2948 166.955 43.6426 158.845 45.4417 150.996C46.9111 144.689 48.8962 140.32 51.3421 138.012C51.7281 137.65 52.2223 137.425 52.7488 137.37L76.3914 134.91C76.8468 134.863 77.3061 134.947 77.7156 135.151C78.1251 135.356 78.468 135.673 78.7042 136.064L79.4814 137.358C79.5757 137.515 79.6518 137.683 79.7081 137.857L84.7068 153.338C84.7815 153.572 84.9019 153.789 85.0611 153.976C85.2203 154.163 85.4151 154.316 85.6342 154.427C93.5044 158.441 119.069 171.992 117.606 177.839C116.232 183.332 103.362 192.239 99.4498 194.837C99.0515 195.103 98.5823 195.244 98.1032 195.24C97.624 195.236 97.157 195.089 96.7628 194.817L90.2693 190.379C89.9523 190.162 89.6918 189.873 89.5097 189.535C89.3275 189.197 89.229 188.82 89.2222 188.437C89.2155 188.053 89.3009 187.673 89.4711 187.329C89.6413 186.985 89.8915 186.687 90.2008 186.459L94.6787 183.163C94.9527 182.961 95.1665 182.688 95.297 182.374C95.4275 182.06 95.4698 181.716 95.4193 181.38C95.3689 181.044 95.2276 180.727 95.0106 180.465C94.7937 180.203 94.5093 180.005 94.188 179.893L70.1392 171.463C69.8692 171.368 69.581 171.336 69.2969 171.37C69.0127 171.404 68.7402 171.503 68.5002 171.659C68.2602 171.814 68.0591 172.023 67.9124 172.269C67.7657 172.514 67.6773 172.79 67.654 173.075L63.2199 227.216C63.1709 227.797 62.9132 228.34 62.4944 228.745C62.0756 229.151 61.524 229.391 60.9416 229.421L54.0809 229.764C54.0391 229.766 53.9977 229.767 53.9563 229.767C53.374 229.769 52.8109 229.559 52.3727 229.176C51.9345 228.793 51.6513 228.263 51.5762 227.687Z" fill="#2F2E41"/>
<path d="M62.4193 91.2295C69.3751 91.2295 75.0139 85.5962 75.0139 78.6473C75.0139 71.6984 69.3751 66.0652 62.4193 66.0652C55.4636 66.0652 49.8248 71.6984 49.8248 78.6473C49.8248 85.5962 55.4636 91.2295 62.4193 91.2295Z" fill="#FFB8B8"/>
<path d="M50.6394 135.857L41.3687 102.064L41.5274 101.957C41.7265 101.823 61.7088 88.6415 85.104 99.2643L85.5282 99.5074L80.0348 134.582C79.915 135.382 79.5193 136.116 78.9161 136.656C78.3128 137.196 77.5398 137.509 76.7303 137.541L54.1253 138.41C54.0797 138.411 54.0343 138.412 53.9891 138.412C53.2271 138.414 52.4858 138.164 51.8801 137.702C51.2745 137.24 50.8384 136.592 50.6394 135.857Z" fill="#CCCCCC"/>
<path d="M41.0159 124.064L33.2947 115.193C32.9229 114.767 32.7135 114.224 32.7035 113.658C32.6935 113.093 32.8836 112.542 33.2402 112.103L41.3117 102.142L47.5079 103.83L50.7929 115.317L44.8033 123.865C44.5943 124.165 44.3193 124.413 43.9994 124.59C43.6795 124.767 43.3232 124.869 42.9578 124.887C42.9146 124.889 42.8717 124.89 42.8287 124.89C42.4848 124.891 42.1448 124.817 41.8319 124.675C41.5191 124.532 41.2407 124.324 41.0159 124.064Z" fill="#CCCCCC"/>
<path d="M83.7128 122.216C83.3474 122.198 82.9911 122.096 82.6712 121.919C82.3512 121.742 82.0762 121.494 81.8673 121.194L75.8777 112.645L78.7587 100.554L84.4637 98.9998L85.5282 99.5072L93.4304 109.432C93.787 109.871 93.9771 110.422 93.9671 110.987C93.9571 111.552 93.7477 112.096 93.3758 112.522L85.6547 121.392C85.4299 121.652 85.1515 121.861 84.8386 122.003C84.5258 122.146 84.1858 122.22 83.8419 122.219C83.7991 122.219 83.7559 122.218 83.7128 122.216Z" fill="#CCCCCC"/>
<path d="M90.007 253H32.0623C31.9263 253 31.7959 252.946 31.6997 252.85C31.6036 252.754 31.5496 252.624 31.5496 252.488C31.5496 252.352 31.6036 252.222 31.6997 252.126C31.7959 252.03 31.9263 251.976 32.0623 251.976H90.007C90.143 251.976 90.2734 252.03 90.3696 252.126C90.4657 252.222 90.5198 252.352 90.5198 252.488C90.5198 252.624 90.4657 252.754 90.3696 252.85C90.2734 252.946 90.143 253 90.007 253Z" fill="#3F3D56"/>
<path d="M57.6306 87.8486C56.6846 87.369 55.898 86.6258 55.366 85.7089C54.834 84.7919 54.5795 83.7406 54.6332 82.6822C54.6869 81.6237 55.0465 80.6035 55.6686 79.745C56.2906 78.8865 57.1484 78.2266 58.1381 77.845C61.9386 76.3798 66.1993 79.37 70.1831 78.5199C74.1537 77.6726 76.4507 72.9302 75.5029 68.986C74.5551 65.0418 71.1056 62.071 67.3018 60.6522C64.8176 59.7279 62.1571 59.3735 59.5172 59.6152C56.8773 59.857 54.3256 60.6887 52.051 62.0487C49.7998 63.4487 47.9249 65.3767 46.5894 67.6653C45.2538 69.9538 44.498 72.5336 44.3876 75.1804C44.3359 77.8295 44.9838 80.4456 46.266 82.765C47.5483 85.0844 49.4196 87.0254 51.6915 88.3925C52.7041 88.9756 53.8826 89.4437 55.0214 89.1812C55.9563 88.8778 56.837 88.428 57.6306 87.8486Z" fill="#2F2E41"/>
<path d="M53.5492 61.7422C50.198 57.3016 45.6741 53.6535 40.4099 51.8448C35.1457 50.0361 29.1301 50.1813 24.186 52.7373C19.242 55.2933 15.555 60.3697 15.1701 65.9177C14.5296 75.1514 22.4273 83.0004 23.2378 92.2208C23.4947 95.1433 23.0199 98.0838 21.8561 100.777C20.6923 103.471 18.8761 105.833 16.571 107.651C14.266 109.469 11.5446 110.685 8.6518 111.191C5.75904 111.696 2.78584 111.475 0 110.547C1.98424 112.178 4.2848 113.383 6.75718 114.084C9.22956 114.785 11.8203 114.967 14.3667 114.62C16.909 114.239 19.3344 113.297 21.4672 111.863C23.6 110.43 25.3867 108.54 26.6978 106.331C28.4752 103.245 29.2051 99.6616 29.4886 96.1132C29.9339 90.5025 29.3309 84.858 27.7104 79.4675C26.8245 76.5264 25.6232 73.4998 26.1849 70.4802C26.5051 68.9096 27.2802 67.4675 28.4139 66.3333C29.5476 65.1991 30.9899 64.4226 32.5616 64.1004C35.1016 63.625 37.6986 64.3994 40.1239 65.2907C42.5492 66.182 44.9944 67.2134 47.5779 67.2724C50.1614 67.3314 52.9754 66.15 53.9738 63.7688L53.5492 61.7422Z" fill="#2F2E41"/>
</g>
<defs>
<clipPath id="clip0_413_2">
<rect width="390" height="253" fill="white"/>
</clipPath>
</defs>
</svg>
