<svg width="221" height="45" viewBox="0 0 221 45" fill="none" xmlns="http://www.w3.org/2000/svg">
<path d="M43.8782 34V30.5553L58.0832 13.4306L58.7393 15.3662H44.1407V11.0358H63.4634V14.4804L49.2912 31.6051L48.6351 29.6696H63.9555V34H43.8782ZM77.8932 34V30.5553L77.5651 29.8008V23.6333C77.5651 22.5397 77.2261 21.6868 76.5481 21.0744C75.892 20.462 74.875 20.1558 73.4972 20.1558C72.5567 20.1558 71.6272 20.3089 70.7087 20.6151C69.812 20.8994 69.0465 21.2931 68.4122 21.7961L66.5751 18.2203C67.5374 17.5423 68.6966 17.0174 70.0526 16.6456C71.4085 16.2738 72.7864 16.0879 74.1861 16.0879C76.8762 16.0879 78.9649 16.7221 80.4521 17.9906C81.9393 19.2591 82.6829 21.2384 82.6829 23.9285V34H77.8932ZM72.513 34.2624C71.1351 34.2624 69.9541 34.0328 68.97 33.5735C67.9858 33.0923 67.2312 32.4472 66.7063 31.6379C66.1814 30.8287 65.919 29.9211 65.919 28.915C65.919 27.8653 66.1705 26.9467 66.6735 26.1593C67.1984 25.372 68.0186 24.7596 69.134 24.3222C70.2494 23.8629 71.7038 23.6333 73.4972 23.6333H78.1884V26.6186H74.0549C72.852 26.6186 72.0209 26.8155 71.5616 27.2091C71.1242 27.6028 70.9055 28.0949 70.9055 28.6854C70.9055 29.3415 71.157 29.8664 71.66 30.2601C72.1849 30.6319 72.8957 30.8178 73.7924 30.8178C74.6454 30.8178 75.4109 30.621 76.0889 30.2273C76.7668 29.8117 77.2589 29.2103 77.5651 28.423L78.3525 30.785C77.9807 31.9223 77.3027 32.7862 76.3185 33.3767C75.3343 33.9672 74.0658 34.2624 72.513 34.2624ZM97.747 34.2624C96.2598 34.2624 94.9585 33.9344 93.8431 33.2782C92.7277 32.6221 91.8528 31.627 91.2186 30.2929C90.6062 28.9369 90.3 27.231 90.3 25.1752C90.3 23.0974 90.5953 21.3915 91.1858 20.0574C91.7763 18.7233 92.6292 17.7282 93.7446 17.0721C94.86 16.416 96.1942 16.0879 97.747 16.0879C99.4092 16.0879 100.896 16.4706 102.209 17.2361C103.543 17.9797 104.593 19.0295 105.358 20.3855C106.145 21.7415 106.539 23.338 106.539 25.1752C106.539 27.0342 106.145 28.6417 105.358 29.9976C104.593 31.3536 103.543 32.4034 102.209 33.147C100.896 33.8906 99.4092 34.2624 97.747 34.2624ZM87.3147 40.3643V16.3503H92.2028V19.959L92.1043 25.208L92.4324 30.4241V40.3643H87.3147ZM96.8612 30.0633C97.7142 30.0633 98.4687 29.8664 99.1248 29.4727C99.8028 29.0791 100.339 28.5214 100.732 27.7996C101.148 27.056 101.356 26.1812 101.356 25.1752C101.356 24.1472 101.148 23.2724 100.732 22.5507C100.339 21.8289 99.8028 21.2712 99.1248 20.8776C98.4687 20.4839 97.7142 20.2871 96.8612 20.2871C96.0083 20.2871 95.2428 20.4839 94.5648 20.8776C93.8868 21.2712 93.351 21.8289 92.9573 22.5507C92.5636 23.2724 92.3668 24.1472 92.3668 25.1752C92.3668 26.1812 92.5636 27.056 92.9573 27.7996C93.351 28.5214 93.8868 29.0791 94.5648 29.4727C95.2428 29.8664 96.0083 30.0633 96.8612 30.0633ZM109.965 34V16.3503H115.083V34H109.965ZM112.524 13.8899C111.583 13.8899 110.818 13.6165 110.227 13.0697C109.637 12.523 109.342 11.845 109.342 11.0358C109.342 10.2266 109.637 9.54856 110.227 9.00179C110.818 8.45503 111.583 8.18164 112.524 8.18164C113.464 8.18164 114.23 8.44409 114.82 8.96899C115.411 9.47201 115.706 10.1281 115.706 10.9374C115.706 11.7903 115.411 12.5011 114.82 13.0697C114.252 13.6165 113.486 13.8899 112.524 13.8899ZM125.77 34.2624C124.261 34.2624 122.807 34.0875 121.407 33.7375C120.029 33.3657 118.936 32.9064 118.126 32.3597L119.832 28.6854C120.642 29.1884 121.593 29.604 122.686 29.932C123.802 30.2382 124.895 30.3913 125.967 30.3913C127.148 30.3913 127.979 30.2492 128.46 29.9648C128.963 29.6805 129.215 29.2868 129.215 28.7838C129.215 28.3683 129.018 28.0621 128.624 27.8653C128.253 27.6465 127.75 27.4825 127.115 27.3732C126.481 27.2638 125.781 27.1545 125.016 27.0451C124.272 26.9358 123.518 26.7936 122.752 26.6186C121.987 26.4218 121.287 26.1375 120.652 25.7657C120.018 25.3939 119.504 24.8908 119.111 24.2566C118.739 23.6223 118.553 22.8022 118.553 21.7961C118.553 20.6807 118.87 19.6966 119.504 18.8436C120.16 17.9906 121.101 17.3236 122.326 16.8424C123.55 16.3394 125.016 16.0879 126.722 16.0879C127.924 16.0879 129.149 16.2191 130.396 16.4816C131.643 16.744 132.681 17.1268 133.512 17.6298L131.807 21.2712C130.954 20.7682 130.09 20.4292 129.215 20.2543C128.362 20.0574 127.531 19.959 126.722 19.959C125.584 19.959 124.753 20.1121 124.228 20.4183C123.703 20.7245 123.441 21.1182 123.441 21.5993C123.441 22.0367 123.627 22.3648 123.999 22.5835C124.392 22.8022 124.906 22.9772 125.541 23.1084C126.175 23.2396 126.864 23.3599 127.607 23.4692C128.373 23.5567 129.138 23.6989 129.904 23.8957C130.669 24.0926 131.358 24.3769 131.971 24.7487C132.605 25.0986 133.119 25.5907 133.512 26.225C133.906 26.8373 134.103 27.6465 134.103 28.6526C134.103 29.7461 133.775 30.7194 133.119 31.5723C132.463 32.4034 131.511 33.0595 130.265 33.5407C129.04 34.0218 127.542 34.2624 125.77 34.2624ZM147.988 16.0879C149.388 16.0879 150.634 16.3722 151.728 16.9408C152.843 17.4876 153.718 18.3406 154.352 19.4997C154.987 20.637 155.304 22.1023 155.304 23.8957V34H150.186V24.6831C150.186 23.2615 149.869 22.2117 149.235 21.5337C148.622 20.8557 147.748 20.5167 146.61 20.5167C145.801 20.5167 145.068 20.6917 144.412 21.0416C143.778 21.3697 143.275 21.8836 142.903 22.5835C142.553 23.2833 142.378 24.18 142.378 25.2736V34H137.261V9.65791H142.378V21.2384L141.23 19.7622C141.864 18.5812 142.772 17.6735 143.953 17.0393C145.134 16.405 146.479 16.0879 147.988 16.0879ZM159.943 34V16.3503H165.061V34H159.943ZM162.502 13.8899C161.561 13.8899 160.796 13.6165 160.205 13.0697C159.615 12.523 159.32 11.845 159.32 11.0358C159.32 10.2266 159.615 9.54856 160.205 9.00179C160.796 8.45503 161.561 8.18164 162.502 8.18164C163.442 8.18164 164.208 8.44409 164.798 8.96899C165.389 9.47201 165.684 10.1281 165.684 10.9374C165.684 11.7903 165.389 12.5011 164.798 13.0697C164.229 13.6165 163.464 13.8899 162.502 13.8899Z" fill="white"/>
<path d="M171.746 34.2624C170.871 34.2624 170.116 33.9672 169.482 33.3767C168.87 32.7643 168.564 31.9879 168.564 31.0474C168.564 30.107 168.87 29.3525 169.482 28.7838C170.116 28.1933 170.871 27.8981 171.746 27.8981C172.643 27.8981 173.397 28.1933 174.009 28.7838C174.622 29.3525 174.928 30.107 174.928 31.0474C174.928 31.9879 174.622 32.7643 174.009 33.3767C173.397 33.9672 172.643 34.2624 171.746 34.2624ZM184.334 34.2624C182.825 34.2624 181.371 34.0875 179.971 33.7375C178.593 33.3657 177.5 32.9064 176.69 32.3597L178.396 28.6854C179.205 29.1884 180.157 29.604 181.25 29.932C182.366 30.2382 183.459 30.3913 184.531 30.3913C185.712 30.3913 186.543 30.2492 187.024 29.9648C187.527 29.6805 187.779 29.2868 187.779 28.7838C187.779 28.3683 187.582 28.0621 187.188 27.8653C186.816 27.6465 186.313 27.4825 185.679 27.3732C185.045 27.2638 184.345 27.1545 183.58 27.0451C182.836 26.9358 182.081 26.7936 181.316 26.6186C180.55 26.4218 179.851 26.1375 179.216 25.7657C178.582 25.3939 178.068 24.8908 177.674 24.2566C177.303 23.6223 177.117 22.8022 177.117 21.7961C177.117 20.6807 177.434 19.6966 178.068 18.8436C178.724 17.9906 179.665 17.3236 180.889 16.8424C182.114 16.3394 183.58 16.0879 185.285 16.0879C186.488 16.0879 187.713 16.2191 188.96 16.4816C190.206 16.744 191.245 17.1268 192.076 17.6298L190.37 21.2712C189.517 20.7682 188.654 20.4292 187.779 20.2543C186.926 20.0574 186.095 19.959 185.285 19.959C184.148 19.959 183.317 20.1121 182.792 20.4183C182.267 20.7245 182.005 21.1182 182.005 21.5993C182.005 22.0367 182.191 22.3648 182.563 22.5835C182.956 22.8022 183.47 22.9772 184.104 23.1084C184.739 23.2396 185.428 23.3599 186.171 23.4692C186.937 23.5567 187.702 23.6989 188.468 23.8957C189.233 24.0926 189.922 24.3769 190.534 24.7487C191.169 25.0986 191.683 25.5907 192.076 26.225C192.47 26.8373 192.667 27.6465 192.667 28.6526C192.667 29.7461 192.339 30.7194 191.683 31.5723C191.027 32.4034 190.075 33.0595 188.829 33.5407C187.604 34.0218 186.106 34.2624 184.334 34.2624ZM204.584 34.2624C202.572 34.2624 200.8 33.8688 199.269 33.0814C197.76 32.2941 196.59 31.2224 195.759 29.8664C194.928 28.4886 194.512 26.9248 194.512 25.1752C194.512 23.4036 194.917 21.8399 195.726 20.4839C196.557 19.106 197.683 18.0344 199.105 17.2689C200.527 16.4816 202.134 16.0879 203.927 16.0879C205.655 16.0879 207.208 16.4597 208.586 17.2033C209.986 17.925 211.09 18.9748 211.899 20.3527C212.709 21.7087 213.113 23.338 213.113 25.2408C213.113 25.4376 213.102 25.6673 213.08 25.9297C213.058 26.1703 213.037 26.3999 213.015 26.6186H198.679V23.6333H210.325L208.356 24.519C208.356 23.6005 208.17 22.8022 207.799 22.1242C207.427 21.4462 206.913 20.9213 206.257 20.5495C205.601 20.1558 204.835 19.959 203.96 19.959C203.085 19.959 202.309 20.1558 201.631 20.5495C200.975 20.9213 200.461 21.4571 200.089 22.157C199.717 22.835 199.531 23.6442 199.531 24.5847V25.372C199.531 26.3343 199.739 27.1873 200.155 27.9309C200.592 28.6526 201.194 29.2103 201.959 29.604C202.746 29.9758 203.665 30.1617 204.715 30.1617C205.655 30.1617 206.475 30.0195 207.175 29.7352C207.897 29.4509 208.553 29.0244 209.144 28.4558L211.867 31.4083C211.057 32.3269 210.04 33.0377 208.816 33.5407C207.591 34.0218 206.18 34.2624 204.584 34.2624Z" fill="#D45555"/>
<rect y="14.3572" width="5.03018" height="20.1207" rx="2.51509" transform="rotate(-30 0 14.3572)" fill="white"/>
<rect x="9.37036" y="14.3572" width="5.03018" height="20.1207" rx="2.51509" transform="rotate(-30 9.37036 14.3572)" fill="#5FA6BC"/>
<rect x="18.7408" y="14.3572" width="5.03018" height="20.1207" rx="2.51509" transform="rotate(-30 18.7408 14.3572)" fill="#D55555"/>
</svg>
